<mxfile host="65bd71144e">
    <diagram id="IR8W0VMyJf6VwAk5rVTD" name="Page-1">
        <mxGraphModel dx="2068" dy="2535" grid="0" gridSize="10" guides="0" tooltips="1" connect="1" arrows="1" fold="1" page="0" pageScale="1" pageWidth="827" pageHeight="1169" math="0" shadow="0">
            <root>
                <mxCell id="0"/>
                <mxCell id="1" parent="0"/>
                <mxCell id="12" style="edgeStyle=none;html=1;fontSize=36;" parent="1" source="2" target="10" edge="1">
                    <mxGeometry relative="1" as="geometry"/>
                </mxCell>
                <mxCell id="31" value="" style="edgeStyle=none;html=1;fontSize=36;" parent="1" source="2" target="30" edge="1">
                    <mxGeometry relative="1" as="geometry"/>
                </mxCell>
                <mxCell id="2" value="&lt;font style=&quot;font-size: 36px;&quot;&gt;Language Model&lt;/font&gt;" style="shape=document;whiteSpace=wrap;html=1;boundedLbl=1;rotation=0;" parent="1" vertex="1">
                    <mxGeometry x="123" y="222" width="192" height="172" as="geometry"/>
                </mxCell>
                <mxCell id="4" style="edgeStyle=none;html=1;fontSize=36;" parent="1" source="3" edge="1">
                    <mxGeometry relative="1" as="geometry">
                        <mxPoint x="123" y="284.5" as="targetPoint"/>
                    </mxGeometry>
                </mxCell>
                <mxCell id="3" value="Tokenizer" style="shape=process;whiteSpace=wrap;html=1;backgroundOutline=1;fontSize=36;" parent="1" vertex="1">
                    <mxGeometry x="-276" y="250" width="222" height="69" as="geometry"/>
                </mxCell>
                <mxCell id="6" style="edgeStyle=none;html=1;entryX=0;entryY=0.5;entryDx=0;entryDy=0;fontSize=36;" parent="1" source="5" target="3" edge="1">
                    <mxGeometry relative="1" as="geometry"/>
                </mxCell>
                <mxCell id="5" value="Nat Lang" style="shape=process;whiteSpace=wrap;html=1;backgroundOutline=1;fontSize=36;" parent="1" vertex="1">
                    <mxGeometry x="-679" y="251" width="222" height="69" as="geometry"/>
                </mxCell>
                <mxCell id="7" value="Sentences created by&amp;nbsp;&lt;br&gt;Humans" style="text;html=1;align=center;verticalAlign=middle;resizable=0;points=[];autosize=1;strokeColor=none;fillColor=none;fontSize=36;" parent="1" vertex="1">
                    <mxGeometry x="-757" y="386" width="376" height="98" as="geometry"/>
                </mxCell>
                <mxCell id="8" value="[1257, 5762, 85565, &lt;br&gt;79797, 6251]" style="text;html=1;align=center;verticalAlign=middle;resizable=0;points=[];autosize=1;strokeColor=none;fillColor=none;fontSize=36;" parent="1" vertex="1">
                    <mxGeometry x="-325" y="374" width="338" height="98" as="geometry"/>
                </mxCell>
                <mxCell id="9" value="[15265, 551265, 7585, &lt;br&gt;97758,75790]" style="text;html=1;align=center;verticalAlign=middle;resizable=0;points=[];autosize=1;strokeColor=none;fillColor=none;fontSize=36;" parent="1" vertex="1">
                    <mxGeometry x="553" y="377" width="378" height="98" as="geometry"/>
                </mxCell>
                <mxCell id="16" style="edgeStyle=none;html=1;fontSize=36;" parent="1" source="10" target="15" edge="1">
                    <mxGeometry relative="1" as="geometry"/>
                </mxCell>
                <mxCell id="10" value="Tokenizer" style="shape=process;whiteSpace=wrap;html=1;backgroundOutline=1;fontSize=36;" parent="1" vertex="1">
                    <mxGeometry x="633" y="266" width="222" height="69" as="geometry"/>
                </mxCell>
                <mxCell id="14" value="Are beautiful to read &lt;br&gt;and write" style="text;html=1;align=center;verticalAlign=middle;resizable=0;points=[];autosize=1;strokeColor=none;fillColor=none;fontSize=36;" parent="1" vertex="1">
                    <mxGeometry x="1059" y="378" width="342" height="98" as="geometry"/>
                </mxCell>
                <mxCell id="15" value="AI Lang" style="shape=process;whiteSpace=wrap;html=1;backgroundOutline=1;fontSize=36;" parent="1" vertex="1">
                    <mxGeometry x="1121" y="258" width="222" height="69" as="geometry"/>
                </mxCell>
                <mxCell id="17" style="edgeStyle=none;html=1;fontSize=36;" parent="1" source="18" target="27" edge="1">
                    <mxGeometry relative="1" as="geometry"/>
                </mxCell>
                <mxCell id="18" value="&lt;font style=&quot;font-size: 36px;&quot;&gt;Language Model&lt;/font&gt;" style="shape=document;whiteSpace=wrap;html=1;boundedLbl=1;rotation=0;" parent="1" vertex="1">
                    <mxGeometry x="131" y="849" width="192" height="172" as="geometry"/>
                </mxCell>
                <mxCell id="19" style="edgeStyle=none;html=1;fontSize=36;" parent="1" source="20" edge="1">
                    <mxGeometry relative="1" as="geometry">
                        <mxPoint x="131" y="911.5" as="targetPoint"/>
                    </mxGeometry>
                </mxCell>
                <mxCell id="20" value="Tokenizer" style="shape=process;whiteSpace=wrap;html=1;backgroundOutline=1;fontSize=36;" parent="1" vertex="1">
                    <mxGeometry x="-268" y="877" width="222" height="69" as="geometry"/>
                </mxCell>
                <mxCell id="21" style="edgeStyle=none;html=1;entryX=0;entryY=0.5;entryDx=0;entryDy=0;fontSize=36;" parent="1" source="22" target="20" edge="1">
                    <mxGeometry relative="1" as="geometry"/>
                </mxCell>
                <mxCell id="22" value="Nat Lang" style="shape=process;whiteSpace=wrap;html=1;backgroundOutline=1;fontSize=36;" parent="1" vertex="1">
                    <mxGeometry x="-671" y="878" width="222" height="69" as="geometry"/>
                </mxCell>
                <mxCell id="23" value="Sentences created by&amp;nbsp;&lt;br&gt;Humans" style="text;html=1;align=center;verticalAlign=middle;resizable=0;points=[];autosize=1;strokeColor=none;fillColor=none;fontSize=36;" parent="1" vertex="1">
                    <mxGeometry x="-749" y="1013" width="376" height="98" as="geometry"/>
                </mxCell>
                <mxCell id="24" value="[1257, 5762, 85565, &lt;br&gt;79797, 6251]" style="text;html=1;align=center;verticalAlign=middle;resizable=0;points=[];autosize=1;strokeColor=none;fillColor=none;fontSize=36;" parent="1" vertex="1">
                    <mxGeometry x="-317" y="1001" width="338" height="98" as="geometry"/>
                </mxCell>
                <mxCell id="25" value="[12365, 7685, 9555, &lt;br&gt;86758,1790]" style="text;html=1;align=center;verticalAlign=middle;resizable=0;points=[];autosize=1;strokeColor=none;fillColor=none;fontSize=36;" parent="1" vertex="1">
                    <mxGeometry x="581" y="1004" width="338" height="98" as="geometry"/>
                </mxCell>
                <mxCell id="26" style="edgeStyle=none;html=1;fontSize=36;" parent="1" source="27" target="29" edge="1">
                    <mxGeometry relative="1" as="geometry"/>
                </mxCell>
                <mxCell id="27" value="Tokenizer" style="shape=process;whiteSpace=wrap;html=1;backgroundOutline=1;fontSize=36;" parent="1" vertex="1">
                    <mxGeometry x="641" y="893" width="222" height="69" as="geometry"/>
                </mxCell>
                <mxCell id="28" value="can instruct AI to make&lt;br&gt;new sentences" style="text;html=1;align=center;verticalAlign=middle;resizable=0;points=[];autosize=1;strokeColor=none;fillColor=none;fontSize=36;" parent="1" vertex="1">
                    <mxGeometry x="1047" y="1005" width="382" height="98" as="geometry"/>
                </mxCell>
                <mxCell id="29" value="AI Lang" style="shape=process;whiteSpace=wrap;html=1;backgroundOutline=1;fontSize=36;" parent="1" vertex="1">
                    <mxGeometry x="1129" y="885" width="222" height="69" as="geometry"/>
                </mxCell>
                <mxCell id="30" value="&lt;font style=&quot;font-size: 24px;&quot;&gt;Pre-trained Model&lt;/font&gt;" style="whiteSpace=wrap;html=1;" parent="1" vertex="1">
                    <mxGeometry x="142" y="96" width="147" height="60" as="geometry"/>
                </mxCell>
                <mxCell id="35" style="edgeStyle=none;html=1;fontSize=24;" parent="1" source="32" target="18" edge="1">
                    <mxGeometry relative="1" as="geometry"/>
                </mxCell>
                <mxCell id="32" value="&lt;font style=&quot;font-size: 24px;&quot;&gt;Fine Tuned Model&lt;/font&gt;" style="whiteSpace=wrap;html=1;" parent="1" vertex="1">
                    <mxGeometry x="149" y="726" width="155" height="60" as="geometry"/>
                </mxCell>
                <mxCell id="36" value="encoding" style="text;html=1;align=center;verticalAlign=middle;resizable=0;points=[];autosize=1;strokeColor=none;fillColor=none;fontSize=24;" parent="1" vertex="1">
                    <mxGeometry x="-439" y="240" width="115" height="41" as="geometry"/>
                </mxCell>
                <mxCell id="37" value="decoding" style="text;html=1;align=center;verticalAlign=middle;resizable=0;points=[];autosize=1;strokeColor=none;fillColor=none;fontSize=24;" parent="1" vertex="1">
                    <mxGeometry x="923" y="242" width="115" height="41" as="geometry"/>
                </mxCell>
                <mxCell id="39" value="encoding" style="text;html=1;align=center;verticalAlign=middle;resizable=0;points=[];autosize=1;strokeColor=none;fillColor=none;fontSize=24;" parent="1" vertex="1">
                    <mxGeometry x="-420" y="862" width="115" height="41" as="geometry"/>
                </mxCell>
                <mxCell id="40" value="decoding" style="text;html=1;align=center;verticalAlign=middle;resizable=0;points=[];autosize=1;strokeColor=none;fillColor=none;fontSize=24;" parent="1" vertex="1">
                    <mxGeometry x="947" y="877" width="115" height="41" as="geometry"/>
                </mxCell>
                <mxCell id="42" value="&lt;font style=&quot;font-size: 36px;&quot;&gt;Inference Process&lt;/font&gt;" style="whiteSpace=wrap;html=1;" vertex="1" parent="1">
                    <mxGeometry x="90" y="-82" width="347" height="125" as="geometry"/>
                </mxCell>
                <mxCell id="44" style="edgeStyle=none;html=1;fontSize=36;entryX=0.647;entryY=0.034;entryDx=0;entryDy=0;entryPerimeter=0;" edge="1" source="45" target="54" parent="1">
                    <mxGeometry relative="1" as="geometry">
                        <Array as="points">
                            <mxPoint x="1001" y="1564"/>
                        </Array>
                    </mxGeometry>
                </mxCell>
                <mxCell id="45" value="&lt;font style=&quot;font-size: 36px;&quot;&gt;Language Model&lt;/font&gt;" style="shape=document;whiteSpace=wrap;html=1;boundedLbl=1;rotation=0;" vertex="1" parent="1">
                    <mxGeometry x="400" y="1398" width="192" height="172" as="geometry"/>
                </mxCell>
                <mxCell id="46" style="edgeStyle=none;html=1;fontSize=36;" edge="1" source="47" parent="1">
                    <mxGeometry relative="1" as="geometry">
                        <mxPoint x="400.00000000000045" y="1460.5" as="targetPoint"/>
                    </mxGeometry>
                </mxCell>
                <mxCell id="47" value="Pad / Tokenize/ Form" style="shape=process;whiteSpace=wrap;html=1;backgroundOutline=1;fontSize=36;" vertex="1" parent="1">
                    <mxGeometry x="-171" y="1398" width="327" height="117" as="geometry"/>
                </mxCell>
                <mxCell id="48" style="edgeStyle=none;html=1;entryX=0;entryY=0.5;entryDx=0;entryDy=0;fontSize=36;" edge="1" source="49" target="47" parent="1">
                    <mxGeometry relative="1" as="geometry"/>
                </mxCell>
                <mxCell id="49" value="Nat Lang&lt;br&gt;Dataset" style="shape=process;whiteSpace=wrap;html=1;backgroundOutline=1;fontSize=36;" vertex="1" parent="1">
                    <mxGeometry x="-607" y="1407" width="247" height="101" as="geometry"/>
                </mxCell>
                <mxCell id="64" style="edgeStyle=elbowEdgeStyle;html=1;fontSize=36;elbow=vertical;entryX=0.524;entryY=0.878;entryDx=0;entryDy=0;entryPerimeter=0;" edge="1" parent="1" target="45">
                    <mxGeometry relative="1" as="geometry">
                        <mxPoint x="469" y="1762.3333333333335" as="targetPoint"/>
                        <mxPoint x="902" y="1824" as="sourcePoint"/>
                    </mxGeometry>
                </mxCell>
                <mxCell id="54" value="Evaluate" style="shape=process;whiteSpace=wrap;html=1;backgroundOutline=1;fontSize=36;" vertex="1" parent="1">
                    <mxGeometry x="872" y="1825" width="222" height="69" as="geometry"/>
                </mxCell>
                <mxCell id="59" value="Pre-process" style="text;html=1;align=center;verticalAlign=middle;resizable=0;points=[];autosize=1;strokeColor=none;fillColor=none;fontSize=24;" vertex="1" parent="1">
                    <mxGeometry x="-345" y="1406" width="147" height="41" as="geometry"/>
                </mxCell>
                <mxCell id="62" style="edgeStyle=none;html=1;fontSize=36;" edge="1" parent="1" source="61" target="45">
                    <mxGeometry relative="1" as="geometry"/>
                </mxCell>
                <mxCell id="61" value="&lt;font style=&quot;font-size: 24px;&quot;&gt;Train Mode&lt;/font&gt;" style="whiteSpace=wrap;html=1;" vertex="1" parent="1">
                    <mxGeometry x="418" y="1255" width="155" height="60" as="geometry"/>
                </mxCell>
                <mxCell id="63" value="Use Trainer" style="text;html=1;align=center;verticalAlign=middle;resizable=0;points=[];autosize=1;strokeColor=none;fillColor=none;fontSize=24;" vertex="1" parent="1">
                    <mxGeometry x="216" y="1406" width="142" height="41" as="geometry"/>
                </mxCell>
                <mxCell id="65" value="optimizer" style="whiteSpace=wrap;html=1;fontSize=36;" vertex="1" parent="1">
                    <mxGeometry x="628" y="1658" width="173" height="60" as="geometry"/>
                </mxCell>
                <mxCell id="66" value="{'text':'Sentence created',},&lt;br&gt;{'text':'by humans'},&lt;br&gt;{'text':'can instruct'},&lt;br&gt;{'text':'AI to make new'}" style="text;html=1;align=center;verticalAlign=middle;resizable=0;points=[];autosize=1;strokeColor=none;fillColor=none;fontSize=36;" vertex="1" parent="1">
                    <mxGeometry x="-713" y="1535" width="440" height="185" as="geometry"/>
                </mxCell>
                <mxCell id="67" value="&lt;font style=&quot;font-size: 72px;&quot;&gt;Fine-Tuning &amp;amp; Inferencing LLMs&lt;br&gt;A Definitive Guide&lt;/font&gt;" style="text;html=1;align=center;verticalAlign=middle;resizable=0;points=[];autosize=1;strokeColor=none;fillColor=none;fontSize=36;" vertex="1" parent="1">
                    <mxGeometry x="-147" y="-1668" width="1040" height="185" as="geometry"/>
                </mxCell>
                <mxCell id="68" value="&lt;div style=&quot;text-align: left;&quot;&gt;&lt;span style=&quot;font-size: 36px; background-color: initial;&quot;&gt;Overview:&lt;/span&gt;&lt;/div&gt;&lt;div style=&quot;text-align: left;&quot;&gt;&lt;span style=&quot;font-size: 36px; background-color: initial;&quot;&gt;- Start with a brief overview&lt;/span&gt;&lt;/div&gt;&lt;font style=&quot;font-size: 36px;&quot;&gt;&lt;div style=&quot;text-align: left;&quot;&gt;&lt;span style=&quot;background-color: initial;&quot;&gt;- Show how the fine-tuned model and actual model differ&lt;/span&gt;&lt;/div&gt;&lt;div style=&quot;text-align: left;&quot;&gt;&lt;span style=&quot;background-color: initial;&quot;&gt;- Move to Jupyter notebook and discuss handson&amp;nbsp;&lt;/span&gt;&lt;/div&gt;&lt;/font&gt;" style="text;html=1;align=center;verticalAlign=middle;resizable=0;points=[];autosize=1;strokeColor=none;fillColor=none;fontSize=72;" vertex="1" parent="1">
                    <mxGeometry x="-82" y="-1392" width="918" height="271" as="geometry"/>
                </mxCell>
                <mxCell id="69" value="&lt;div style=&quot;text-align: left;&quot;&gt;&lt;span style=&quot;font-size: 36px;&quot;&gt;- Diving into tokenizer from loading to learning how&amp;nbsp;&lt;/span&gt;&lt;/div&gt;&lt;div style=&quot;text-align: left;&quot;&gt;&lt;span style=&quot;font-size: 36px;&quot;&gt;its parameters impact sentence embedding&lt;/span&gt;&lt;/div&gt;&lt;div style=&quot;text-align: left;&quot;&gt;&lt;span style=&quot;font-size: 36px;&quot;&gt;- Loading the model with and without quantisation using&amp;nbsp;&lt;/span&gt;&lt;/div&gt;&lt;div style=&quot;text-align: left;&quot;&gt;&lt;span style=&quot;font-size: 36px;&quot;&gt;bitsandbytes&lt;/span&gt;&lt;/div&gt;&lt;div style=&quot;text-align: left;&quot;&gt;&lt;span style=&quot;font-size: 36px;&quot;&gt;- Getting model ready for training with peft and LORA config&lt;/span&gt;&lt;/div&gt;&lt;div style=&quot;text-align: left;&quot;&gt;&lt;span style=&quot;font-size: 36px; background-color: initial;&quot;&gt;- Introducing Data Collator&lt;/span&gt;&lt;/div&gt;&lt;div style=&quot;text-align: left;&quot;&gt;&lt;span style=&quot;font-size: 36px; background-color: initial;&quot;&gt;- Introducing Training Args &amp;amp; Trainer&lt;/span&gt;&lt;/div&gt;&lt;div style=&quot;text-align: left;&quot;&gt;&lt;span style=&quot;font-size: 36px; background-color: initial;&quot;&gt;- Training &amp;amp; Recap&lt;/span&gt;&lt;span style=&quot;background-color: initial; font-size: 36px;&quot;&gt;&amp;nbsp;&lt;/span&gt;&lt;/div&gt;" style="text;html=1;align=center;verticalAlign=middle;resizable=0;points=[];autosize=1;strokeColor=none;fillColor=none;fontSize=72;" vertex="1" parent="1">
                    <mxGeometry x="-77" y="-1052" width="971" height="703" as="geometry"/>
                </mxCell>
                <mxCell id="83" value="" style="whiteSpace=wrap;html=1;fontSize=36;" vertex="1" parent="1">
                    <mxGeometry x="1823" y="1254" width="906" height="992" as="geometry"/>
                </mxCell>
                <mxCell id="82" value="epoch: when all data is pushed through model&lt;br&gt;batches: set of datapoints sent through model&lt;br&gt;steps: each time a batch is sent through model" style="text;html=1;align=center;verticalAlign=middle;resizable=0;points=[];autosize=1;strokeColor=none;fillColor=none;fontSize=36;" vertex="1" parent="1">
                    <mxGeometry x="1853" y="1053" width="762" height="142" as="geometry"/>
                </mxCell>
                <mxCell id="74" style="edgeStyle=elbowEdgeStyle;elbow=vertical;html=1;fontSize=36;exitX=0.497;exitY=0.844;exitDx=0;exitDy=0;exitPerimeter=0;" edge="1" parent="1" source="70" target="73">
                    <mxGeometry relative="1" as="geometry"/>
                </mxCell>
                <mxCell id="70" value="&lt;font style=&quot;font-size: 36px;&quot;&gt;Language Model&lt;/font&gt;" style="shape=document;whiteSpace=wrap;html=1;boundedLbl=1;rotation=0;" vertex="1" parent="1">
                    <mxGeometry x="2380" y="1453" width="192" height="172" as="geometry"/>
                </mxCell>
                <mxCell id="72" style="edgeStyle=elbowEdgeStyle;elbow=vertical;html=1;fontSize=36;exitX=1;exitY=0.5;exitDx=0;exitDy=0;" edge="1" parent="1" source="71" target="70">
                    <mxGeometry relative="1" as="geometry"/>
                </mxCell>
                <mxCell id="76" value="" style="edgeStyle=elbowEdgeStyle;elbow=vertical;html=1;fontSize=36;" edge="1" parent="1" source="73" target="75">
                    <mxGeometry relative="1" as="geometry"/>
                </mxCell>
                <mxCell id="73" value="Model Generates output" style="whiteSpace=wrap;html=1;fontSize=36;" vertex="1" parent="1">
                    <mxGeometry x="2210" y="1707" width="487" height="60" as="geometry"/>
                </mxCell>
                <mxCell id="78" value="" style="edgeStyle=elbowEdgeStyle;elbow=vertical;html=1;fontSize=36;" edge="1" parent="1" source="75" target="77">
                    <mxGeometry relative="1" as="geometry"/>
                </mxCell>
                <mxCell id="75" value="Compares to Labels" style="whiteSpace=wrap;html=1;fontSize=36;" vertex="1" parent="1">
                    <mxGeometry x="2210" y="1873" width="487" height="60" as="geometry"/>
                </mxCell>
                <mxCell id="80" value="" style="edgeStyle=elbowEdgeStyle;elbow=vertical;html=1;fontSize=36;" edge="1" parent="1" source="77" target="79">
                    <mxGeometry relative="1" as="geometry"/>
                </mxCell>
                <mxCell id="77" value="Calculates Loss" style="whiteSpace=wrap;html=1;fontSize=36;" vertex="1" parent="1">
                    <mxGeometry x="2210" y="2013" width="487" height="60" as="geometry"/>
                </mxCell>
                <mxCell id="71" value="Each data point in dataset" style="whiteSpace=wrap;html=1;fontSize=36;" vertex="1" parent="1">
                    <mxGeometry x="1856" y="1298" width="487" height="60" as="geometry"/>
                </mxCell>
                <mxCell id="85" style="edgeStyle=elbowEdgeStyle;elbow=vertical;html=1;fontSize=36;" edge="1" parent="1" source="79" target="71">
                    <mxGeometry relative="1" as="geometry">
                        <Array as="points">
                            <mxPoint x="2018" y="2192"/>
                        </Array>
                    </mxGeometry>
                </mxCell>
                <mxCell id="79" value="Updates model parameters" style="whiteSpace=wrap;html=1;fontSize=36;" vertex="1" parent="1">
                    <mxGeometry x="2210" y="2153" width="487" height="60" as="geometry"/>
                </mxCell>
                <mxCell id="86" value="&lt;font style=&quot;font-size: 36px;&quot;&gt;Training Process&lt;/font&gt;" style="whiteSpace=wrap;html=1;" vertex="1" parent="1">
                    <mxGeometry x="2061" y="883" width="347" height="125" as="geometry"/>
                </mxCell>
            </root>
        </mxGraphModel>
    </diagram>
</mxfile>